<svg width="184" height="50" viewBox="0 0 184 50" fill="none" xmlns="http://www.w3.org/2000/svg">
<g clip-path="url(#clip0_207_834)">
<path d="M5.20834 49.8576L4.76582 48.6063H1.90722L1.49013 49.8576H0.00488281L2.4413 42.8993H4.14018L6.59695 49.8576H5.20834ZM2.34975 47.3245H4.30804L3.306 44.4812L2.34975 47.3245Z" fill="#173F6B"/>
<path d="M10.3255 50C9.27765 50 8.41295 49.6541 7.73136 48.9573C7.04978 48.2604 6.70898 47.4008 6.70898 46.3835C6.70898 45.3561 7.04978 44.4964 7.73136 43.8047C8.41295 43.1129 9.27765 42.767 10.3255 42.767C10.9562 42.767 11.536 42.9145 12.0701 43.2096C12.6042 43.5046 13.0213 43.9064 13.3163 44.41L12.1312 45.0966C11.9582 44.7864 11.7141 44.5422 11.3936 44.3642C11.0732 44.1862 10.7171 44.0997 10.3204 44.0997C9.64388 44.0997 9.09963 44.3133 8.68762 44.7355C8.27562 45.1577 8.06707 45.7121 8.06707 46.3886C8.06707 47.06 8.27562 47.6043 8.68762 48.0265C9.09963 48.4486 9.64896 48.6623 10.3204 48.6623C10.7171 48.6623 11.0783 48.5758 11.3987 48.3978C11.7192 48.2248 11.9633 47.9807 12.1312 47.6755L13.3163 48.3622C13.0162 48.8657 12.6042 49.2676 12.0752 49.5626C11.5462 49.8525 10.9613 50 10.3255 50Z" fill="#173F6B"/>
<path d="M17.3953 50C16.3475 50 15.4828 49.6541 14.8012 48.9573C14.1196 48.2604 13.7788 47.4008 13.7788 46.3835C13.7788 45.3561 14.1196 44.4964 14.8012 43.8047C15.4828 43.1129 16.3475 42.767 17.3953 42.767C18.026 42.767 18.6059 42.9145 19.1399 43.2096C19.674 43.5046 20.0911 43.9064 20.3861 44.41L19.201 45.0966C19.028 44.7864 18.7839 44.5422 18.4634 44.3642C18.143 44.1862 17.7869 44.0997 17.3902 44.0997C16.7137 44.0997 16.1694 44.3133 15.7574 44.7355C15.3454 45.1577 15.1369 45.7121 15.1369 46.3886C15.1369 47.06 15.3454 47.6043 15.7574 48.0265C16.1694 48.4486 16.7188 48.6623 17.3902 48.6623C17.7869 48.6623 18.1481 48.5758 18.4685 48.3978C18.789 48.2248 19.0331 47.9807 19.201 47.6755L20.3861 48.3622C20.086 48.8657 19.674 49.2676 19.145 49.5626C18.616 49.8525 18.0311 50 17.3953 50Z" fill="#173F6B"/>
<path d="M22.6041 48.5453H25.539V49.8576H21.2358V42.8993H25.4932V44.2116H22.6092V45.6918H25.244V46.9837H22.6092V48.5453H22.6041Z" fill="#173F6B"/>
<path d="M28.8806 50C28.1888 50 27.6089 49.8474 27.141 49.5371C26.6679 49.2269 26.3373 48.8098 26.144 48.2808L27.319 47.5941C27.5886 48.3011 28.1227 48.6572 28.9213 48.6572C29.3078 48.6572 29.5876 48.586 29.7656 48.4486C29.9436 48.3113 30.0352 48.1333 30.0352 47.9196C30.0352 47.6755 29.9233 47.4822 29.7046 47.3499C29.4859 47.2126 29.0942 47.0651 28.5296 46.9074C28.2193 46.8159 27.9548 46.7192 27.7412 46.6277C27.5276 46.5361 27.3088 46.409 27.0952 46.2564C26.8816 46.0987 26.7137 45.9054 26.6018 45.6663C26.4899 45.4273 26.434 45.1475 26.434 44.8321C26.434 44.2014 26.6578 43.703 27.1054 43.3266C27.553 42.9502 28.0922 42.767 28.7229 42.767C29.2875 42.767 29.7809 42.9044 30.2081 43.179C30.6354 43.4537 30.9711 43.8352 31.2051 44.3286L30.0505 44.9949C29.7707 44.3998 29.3282 44.0997 28.7178 44.0997C28.433 44.0997 28.2091 44.1658 28.0464 44.293C27.8836 44.4201 27.8022 44.588 27.8022 44.7965C27.8022 45.0153 27.8938 45.1933 28.0769 45.3306C28.26 45.468 28.611 45.6155 29.1247 45.7731C29.3383 45.8393 29.496 45.8901 29.6079 45.9257C29.7147 45.9613 29.8673 46.0173 30.0555 46.0936C30.2437 46.1699 30.3912 46.2411 30.493 46.3072C30.5947 46.3734 30.7117 46.4649 30.8439 46.5768C30.9762 46.6887 31.0779 46.8057 31.1491 46.9227C31.2203 47.0397 31.2763 47.1872 31.3272 47.355C31.378 47.5229 31.4035 47.706 31.4035 47.9044C31.4035 48.5453 31.1695 49.059 30.7015 49.4354C30.2336 49.8067 29.6283 50 28.8806 50Z" fill="#173F6B"/>
<path d="M34.4655 50C33.7738 50 33.1939 49.8474 32.7259 49.5371C32.2529 49.2269 31.9223 48.8098 31.729 48.2808L32.904 47.5941C33.1736 48.3011 33.7076 48.6572 34.5062 48.6572C34.8928 48.6572 35.1725 48.586 35.3506 48.4486C35.5286 48.3113 35.6201 48.1333 35.6201 47.9196C35.6201 47.6755 35.5082 47.4822 35.2895 47.3499C35.0708 47.2126 34.6792 47.0651 34.1146 46.9074C33.8043 46.8159 33.5398 46.7192 33.3262 46.6277C33.1125 46.5361 32.8938 46.409 32.6802 46.2564C32.4665 46.0987 32.2987 45.9054 32.1868 45.6663C32.0749 45.4273 32.0189 45.1475 32.0189 44.8321C32.0189 44.2014 32.2427 43.703 32.6903 43.3266C33.138 42.9502 33.6771 42.767 34.3078 42.767C34.8724 42.767 35.3658 42.9044 35.7931 43.179C36.2204 43.4537 36.5561 43.8352 36.79 44.3286L35.6354 44.9949C35.3557 44.3998 34.9131 44.0997 34.3028 44.0997C34.0179 44.0997 33.7941 44.1658 33.6313 44.293C33.4686 44.4201 33.3872 44.588 33.3872 44.7965C33.3872 45.0153 33.4787 45.1933 33.6619 45.3306C33.845 45.468 34.1959 45.6155 34.7097 45.7731C34.9233 45.8393 35.081 45.8901 35.1929 45.9257C35.2997 45.9613 35.4523 46.0173 35.6405 46.0936C35.8287 46.1699 35.9762 46.2411 36.0779 46.3072C36.1797 46.3734 36.2967 46.4649 36.4289 46.5768C36.5611 46.6887 36.6629 46.8057 36.7341 46.9227C36.8053 47.0397 36.8612 47.1872 36.9121 47.355C36.963 47.5229 36.9884 47.706 36.9884 47.9044C36.9884 48.5453 36.7544 49.059 36.2865 49.4354C35.8236 49.8067 35.2132 50 34.4655 50Z" fill="#173F6B"/>
<path d="M37.8379 42.8993H39.2112V49.8576H37.8379V42.8993Z" fill="#173F6B"/>
<path d="M44.5268 42.8993H45.9002V49.8576H44.8574L41.8768 45.6002V49.8576H40.5034V42.8993H41.5461L44.5319 47.1363V42.8993H44.5268Z" fill="#173F6B"/>
<path d="M54.0232 46.119V46.6582C54.0232 47.6551 53.7027 48.4588 53.0669 49.0743C52.4311 49.6897 51.6071 50 50.6 50C49.5267 50 48.6366 49.649 47.9296 48.9522C47.2226 48.2553 46.8716 47.4008 46.8716 46.3937C46.8716 45.3815 47.2225 44.5219 47.9194 43.8199C48.6162 43.118 49.486 42.767 50.5186 42.767C51.1697 42.767 51.7597 42.9145 52.2989 43.2096C52.838 43.5046 53.2551 43.8962 53.5501 44.3896L52.3752 45.0661C52.2073 44.7813 51.9581 44.5473 51.6224 44.3693C51.2866 44.1913 50.9153 44.0997 50.5033 44.0997C49.8421 44.0997 49.2927 44.3184 48.8706 44.7508C48.4433 45.1831 48.2297 45.7325 48.2297 46.3988C48.2297 47.0549 48.4484 47.5992 48.8807 48.0265C49.3131 48.4537 49.8879 48.6673 50.6051 48.6673C51.134 48.6673 51.5766 48.5504 51.9225 48.3164C52.2683 48.0824 52.5074 47.7569 52.6346 47.3449H50.5288V46.1343H54.0232V46.119Z" fill="#173F6B"/>
<path d="M60.2439 42.8993C61.2001 42.8993 61.9936 43.235 62.6345 43.9013C63.2754 44.5677 63.5959 45.3968 63.5959 46.3784C63.5959 47.3601 63.2754 48.1841 62.6345 48.8556C61.9936 49.527 61.2001 49.8576 60.2439 49.8576H57.4819V42.8993H60.2439ZM60.2439 48.5453C60.8492 48.5453 61.3375 48.3469 61.7139 47.9451C62.0903 47.5432 62.2785 47.0244 62.2785 46.3784C62.2785 45.7325 62.0903 45.2136 61.7139 44.8118C61.3375 44.41 60.8441 44.2116 60.2439 44.2116H58.8502V48.5453H60.2439Z" fill="#173F6B"/>
<path d="M68.3873 49.8576L66.9784 47.4415H65.9407V49.8576H64.5674V42.8993H67.3497C67.9906 42.8993 68.5399 43.1231 68.9926 43.5758C69.4453 44.0285 69.6691 44.5727 69.6691 45.2085C69.6691 45.6409 69.547 46.0376 69.3029 46.409C69.0587 46.7752 68.7332 47.0549 68.3263 47.2381L69.8675 49.8627H68.3873V49.8576ZM65.9407 44.1811V46.2411H67.3548C67.6142 46.2411 67.838 46.1394 68.0211 45.9359C68.2093 45.7325 68.3008 45.4883 68.3008 45.2035C68.3008 44.9186 68.2093 44.6745 68.0211 44.4761C67.838 44.2777 67.6142 44.176 67.3548 44.176H65.9407V44.1811Z" fill="#173F6B"/>
<path d="M70.6768 42.8993H72.0501V49.8576H70.6768V42.8993Z" fill="#173F6B"/>
<path d="M75.0613 49.8576L72.7266 42.8993H74.2169L75.9209 48.2503L77.6096 42.8993H79.1101L76.7652 49.8576H75.0613Z" fill="#173F6B"/>
<path d="M81.1446 48.5453H84.0796V49.8576H79.7764V42.8993H84.0338V44.2116H81.1497V45.6918H83.7845V46.9837H81.1497V48.5453H81.1446Z" fill="#173F6B"/>
<path d="M88.86 49.8576L87.451 47.4415H86.4134V49.8576H85.04V42.8993H87.8223C88.4632 42.8993 89.0126 43.1231 89.4653 43.5758C89.918 44.0285 90.1418 44.5727 90.1418 45.2085C90.1418 45.6409 90.0197 46.0376 89.7755 46.409C89.5314 46.7752 89.2059 47.0549 88.7989 47.2381L90.3401 49.8627H88.86V49.8576ZM86.4134 44.1811V46.2411H87.8274C88.0868 46.2411 88.3106 46.1394 88.4937 45.9359C88.6819 45.7325 88.7735 45.4883 88.7735 45.2035C88.7735 44.9186 88.6819 44.6745 88.4937 44.4761C88.3106 44.2777 88.0868 44.176 87.8274 44.176H86.4134V44.1811Z" fill="#173F6B"/>
<path d="M93.4133 50C92.7215 50 92.1417 49.8474 91.6737 49.5371C91.2007 49.2269 90.87 48.8098 90.6768 48.2808L91.8517 47.5941C92.1213 48.3011 92.6554 48.6572 93.454 48.6572C93.8405 48.6572 94.1203 48.586 94.2983 48.4486C94.4763 48.3113 94.5679 48.1333 94.5679 47.9196C94.5679 47.6755 94.456 47.4822 94.2373 47.3499C94.0186 47.2126 93.6269 47.0651 93.0623 46.9074C92.752 46.8159 92.4875 46.7192 92.2739 46.6277C92.0603 46.5361 91.8416 46.409 91.6279 46.2564C91.4143 46.0987 91.2464 45.9054 91.1345 45.6663C91.0226 45.4273 90.9667 45.1475 90.9667 44.8321C90.9667 44.2014 91.1905 43.703 91.6381 43.3266C92.0857 42.9502 92.6249 42.767 93.2556 42.767C93.8202 42.767 94.3136 42.9044 94.7408 43.179C95.1681 43.4537 95.5038 43.8352 95.7378 44.3286L94.5832 44.9949C94.3034 44.3998 93.8609 44.0997 93.2505 44.0997C92.9657 44.0997 92.7419 44.1658 92.5791 44.293C92.4163 44.4201 92.3349 44.588 92.3349 44.7965C92.3349 45.0153 92.4265 45.1933 92.6096 45.3306C92.7927 45.468 93.1437 45.6155 93.6574 45.7731C93.8711 45.8393 94.0287 45.8901 94.1406 45.9257C94.2475 45.9613 94.4001 46.0173 94.5883 46.0936C94.7765 46.1699 94.924 46.2411 95.0257 46.3072C95.1274 46.3734 95.2444 46.4649 95.3767 46.5768C95.5089 46.6887 95.6106 46.8057 95.6818 46.9227C95.7531 47.0397 95.809 47.1872 95.8599 47.355C95.9107 47.5229 95.9362 47.706 95.9362 47.9044C95.9362 48.5453 95.7022 49.059 95.2342 49.4354C94.7714 49.8067 94.161 50 93.4133 50Z" fill="#173F6B"/>
<path d="M100.692 48.5453H103.626V49.8576H99.3232V42.8993H103.581V44.2116H100.697V45.6918H103.331V46.9837H100.697V48.5453H100.692Z" fill="#173F6B"/>
<path d="M109.273 49.8576L108.83 48.6063H105.971L105.554 49.8576H104.074L106.511 42.8993H108.21L110.666 49.8576H109.273ZM106.419 47.3245H108.377L107.375 44.4812L106.419 47.3245Z" fill="#173F6B"/>
<path d="M113.555 50C112.863 50 112.283 49.8474 111.815 49.5371C111.342 49.2269 111.012 48.8098 110.818 48.2808L111.993 47.5941C112.263 48.3011 112.797 48.6572 113.596 48.6572C113.982 48.6572 114.262 48.586 114.44 48.4486C114.618 48.3113 114.71 48.1333 114.71 47.9196C114.71 47.6755 114.598 47.4822 114.379 47.3499C114.16 47.2126 113.769 47.0651 113.204 46.9074C112.894 46.8159 112.629 46.7192 112.416 46.6277C112.202 46.5361 111.983 46.409 111.77 46.2564C111.556 46.0987 111.388 45.9054 111.276 45.6663C111.164 45.4273 111.108 45.1475 111.108 44.8321C111.108 44.2014 111.332 43.703 111.78 43.3266C112.227 42.9502 112.766 42.767 113.397 42.767C113.962 42.767 114.455 42.9044 114.882 43.179C115.31 43.4537 115.645 43.8352 115.879 44.3286L114.725 44.9949C114.445 44.3998 114.002 44.0997 113.392 44.0997C113.107 44.0997 112.883 44.1658 112.721 44.293C112.558 44.4201 112.477 44.588 112.477 44.7965C112.477 45.0153 112.568 45.1933 112.751 45.3306C112.934 45.468 113.285 45.6155 113.799 45.7731C114.013 45.8393 114.17 45.8901 114.282 45.9257C114.389 45.9613 114.542 46.0173 114.73 46.0936C114.918 46.1699 115.066 46.2411 115.167 46.3072C115.269 46.3734 115.386 46.4649 115.518 46.5768C115.651 46.6887 115.752 46.8057 115.823 46.9227C115.895 47.0397 115.951 47.1872 116.001 47.355C116.052 47.5229 116.078 47.706 116.078 47.9044C116.078 48.5453 115.844 49.059 115.376 49.4354C114.913 49.8067 114.303 50 113.555 50Z" fill="#173F6B"/>
<path d="M116.928 42.8993H118.301V49.8576H116.928V42.8993Z" fill="#173F6B"/>
<path d="M120.961 48.5453H123.896V49.8576H119.593V42.8993H123.85V44.2116H120.966V45.6918H123.601V46.9837H120.966V48.5453H120.961Z" fill="#173F6B"/>
<path d="M128.677 49.8576L127.268 47.4415H126.231V49.8576H124.857V42.8993H127.64C128.281 42.8993 128.83 43.1231 129.283 43.5758C129.735 44.0285 129.959 44.5727 129.959 45.2085C129.959 45.6409 129.837 46.0376 129.593 46.409C129.349 46.7752 129.023 47.0549 128.616 47.2381L130.158 49.8627H128.677V49.8576ZM126.231 44.1811V46.2411H127.645C127.904 46.2411 128.128 46.1394 128.311 45.9359C128.499 45.7325 128.591 45.4883 128.591 45.2035C128.591 44.9186 128.499 44.6745 128.311 44.4761C128.128 44.2777 127.904 44.176 127.645 44.176H126.231V44.1811Z" fill="#173F6B"/>
<path d="M138.052 42.8993V44.2116H136.175V49.8576H134.801V44.2116H132.935V42.8993H138.052Z" fill="#173F6B"/>
<path d="M142.777 42.8993H144.14V49.8576H142.777V46.9736H140.193V49.8576H138.819V42.8993H140.193V45.6612H142.777V42.8993Z" fill="#173F6B"/>
<path d="M150.005 49.8576L149.563 48.6063H146.704L146.287 49.8576H144.807L147.243 42.8993H148.942L151.399 49.8576H150.005ZM147.151 47.3245H149.11L148.108 44.4812L147.151 47.3245Z" fill="#173F6B"/>
<path d="M156.099 42.8993H157.472V49.8576H156.429L153.449 45.6002V49.8576H152.075V42.8993H153.118L156.104 47.1363V42.8993H156.099Z" fill="#173F6B"/>
<path d="M162.619 48.5453H165.554V49.8576H161.251V42.8993H165.508V44.2116H162.624V45.6918H165.259V46.9837H162.624V48.5453H162.619Z" fill="#173F6B"/>
<path d="M168.235 49.8576L165.9 42.8993H167.391L169.095 48.2503L170.783 42.8993H172.284L169.939 49.8576H168.235Z" fill="#173F6B"/>
<path d="M174.323 48.5453H177.258V49.8576H172.955V42.8993H177.212V44.2116H174.328V45.6918H176.963V46.9837H174.328V48.5453H174.323Z" fill="#173F6B"/>
<path d="M182.04 49.8576L180.631 47.4415H179.593V49.8576H178.22V42.8993H181.002C181.643 42.8993 182.192 43.1231 182.645 43.5758C183.098 44.0285 183.321 44.5727 183.321 45.2085C183.321 45.6409 183.199 46.0376 182.955 46.409C182.711 46.7752 182.386 47.0549 181.979 47.2381L183.52 49.8627H182.04V49.8576ZM179.593 44.1811V46.2411H181.007C181.267 46.2411 181.49 46.1394 181.673 45.9359C181.862 45.7325 181.953 45.4883 181.953 45.2035C181.953 44.9186 181.862 44.6745 181.673 44.4761C181.49 44.2777 181.267 44.176 181.007 44.176H179.593V44.1811Z" fill="#173F6B"/>
<path d="M29.527 20.5188H28.4233C25.936 20.5188 24.3388 21.8718 24.3388 24.4812V32.0651H20.1934V16.8616H23.998V18.6724C25.0102 17.4161 26.4853 16.6785 28.174 16.6785C28.6979 16.6785 29.1252 16.7396 29.527 16.8616V20.5188Z" fill="#001B72"/>
<path d="M31.0684 16.8616H35.2138V25.7019C35.2138 27.4517 36.4092 28.6165 38.0979 28.6165C39.695 28.6165 40.9209 27.4517 40.9209 25.7019V16.8616H45.0663V25.3662C45.0663 29.6033 42.0602 32.4262 38.0979 32.4262C34.0439 32.4262 31.0684 29.6033 31.0684 25.3662V16.8616Z" fill="#001B72"/>
<path d="M54.7253 16.5259C57.7009 16.5259 60.0051 17.94 61.3275 20.2696L58.4435 22.5127C57.4923 21.1292 56.3886 20.3001 54.7914 20.3001C52.4567 20.3001 50.7986 22.0804 50.7986 24.4456C50.7986 26.8718 52.4567 28.6216 54.7914 28.6216C56.3581 28.6216 57.4618 27.823 58.4435 26.4395L61.3275 28.6521C60.0051 30.9868 57.6755 32.4262 54.7253 32.4262C50.2746 32.5178 46.531 28.8352 46.592 24.4456C46.592 19.9949 50.2136 16.5259 54.7253 16.5259Z" fill="#001B72"/>
<path d="M85.2087 28.1485C86.9228 29.1709 88.7896 28.8199 90.3511 27.2584C91.4142 26.1953 92.0449 24.8271 92.2636 23.179L95.4783 23.9624C95.2595 26.3072 94.3694 28.2808 92.7875 29.8678C89.5322 33.2553 84.3236 33.296 81.2819 30.1272C78.1131 27.0905 78.1131 21.9227 81.2819 18.881C84.2575 15.9054 88.5301 16.0173 91.3328 18.8149C91.8516 19.3337 92.3297 19.944 92.7417 20.6155L85.2087 28.1485ZM88.0266 21.2004C86.6787 19.8983 84.8119 20.0712 83.5352 21.353C82.2992 22.589 82.1466 24.4354 83.1436 26.0834L88.0266 21.2004Z" fill="#001B72"/>
<path d="M106.342 20.5188H105.239C102.751 20.5188 101.154 21.8718 101.154 24.4812V32.0651H97.0088V16.8616H100.813V18.6724C101.826 17.4161 103.301 16.6785 104.989 16.6785C105.513 16.6785 105.941 16.7396 106.342 16.8616V20.5188Z" fill="#001B72"/>
<path d="M109.96 26.9634C111.282 28.3469 112.722 29.0183 114.227 29.0183C115.331 29.0183 116.16 28.586 116.16 27.762C116.16 27.116 115.728 26.8718 114.593 26.3784L112.966 25.7019C110.173 24.5676 108.82 23.3062 108.82 21.0682C108.82 18.2146 111.094 16.5259 114.405 16.5259C116.679 16.5259 118.49 17.294 119.868 18.7996L117.783 21.3479C116.77 20.3967 115.636 19.9034 114.375 19.9034C113.363 19.9034 112.747 20.2696 112.747 20.9766C112.747 21.5615 113.144 21.8362 114.344 22.3296L115.819 22.9451C118.764 24.1404 120.087 25.3408 120.087 27.5788C120.087 29.0844 119.532 30.2798 118.398 31.1394C117.294 31.999 115.88 32.4262 114.161 32.4262C111.491 32.4262 109.248 31.3225 107.869 29.4812L109.96 26.9634Z" fill="#001B72"/>
<path d="M71.6789 23.586L77.391 16.8616H72.4775L67.0146 23.3418V5.96134L62.8691 10.8749V32.06H67.0146V23.647L73.1235 32.06H77.8488L71.6789 23.586Z" fill="#001B72"/>
<path d="M3.1587 11.8006L0 15.5443H8.0061V32.06H12.1516V15.5443H18.6572V11.8006H3.1587Z" fill="#001B72"/>
<path d="M117.075 0C117.075 0 130.437 27.7874 131.073 29.8881C130.809 27.706 119.095 1.64293 119.095 1.64293C120.798 1.63276 138.22 1.28688 138.942 1.43947C139.934 1.64802 140.453 2.1414 141.078 2.86368C142.279 4.30824 143.103 6.10885 143.784 7.93489L141.816 7.90437L132.111 7.8179L130.793 7.80773C130.793 7.80773 135.442 19.3744 138.072 20.234C139.384 20.6562 145.071 20.4985 146.399 20.5137L159.379 20.3764L159.593 20.3713C160.295 21.9634 160.941 23.6724 161.475 25.3357C161.099 23.6724 160.58 21.9685 159.99 20.3662L167.319 20.3408L169.298 20.3103C169.298 20.3103 170.86 20.295 171.149 20.3713C172.284 20.5951 173.357 21.3479 174.293 22.1974C176.17 23.9369 177.696 27.6755 178.555 30.1475C179.486 32.823 180.005 34.8474 180.676 37.2991C180.341 34.588 179.822 32.2787 178.896 29.4964C178.057 26.9837 176.877 23.4435 174.944 21.5158C174.461 21.0326 173.937 20.5849 173.352 20.1933C172.777 19.7965 172.121 19.471 171.394 19.293C171.012 19.1963 170.626 19.176 170.295 19.1556L169.303 19.1404L167.324 19.1099L159.517 19.1556C159.125 18.2045 158.647 17.1109 158.184 16.1902C157.426 14.7457 156.572 13.3316 155.519 12.0498C154.466 10.7731 153.189 9.61852 151.643 8.85554C151.45 8.7589 150.036 7.98576 146.673 7.98576L143.835 7.94507C143.459 6.01729 142.843 4.10987 141.709 2.39573C141.099 1.5412 140.28 0.666328 139.069 0.376399C138.418 0.254324 137.97 0.279756 137.447 0.254324L117.075 0ZM141.811 9.29807L146.663 9.22686C150.193 9.22686 150.997 9.76094 151.17 9.83723C152.553 10.4476 153.784 11.4547 154.837 12.6246C155.88 13.8098 156.801 15.117 157.625 16.4903C158.098 17.3093 158.596 18.296 159.013 19.1455C159.013 19.1455 140.478 19.354 139.044 18.7182C137.126 17.8637 134.507 11.7141 133.484 9.37436L141.811 9.29807Z" fill="#EA002A"/>
<path d="M162.426 37.355C162.426 34.8271 161.404 31.9583 159.608 30.1831C157.828 28.3978 155.321 27.3703 152.803 27.3856C150.285 27.3856 147.787 28.4232 146.022 30.2136C144.242 31.9888 143.22 34.4863 143.235 36.9939L143.566 36.6633L0.0102539 36.9888L143.561 37.3194H143.891V36.9888C143.891 34.6541 144.858 32.3449 146.516 30.707C148.164 29.059 150.473 28.1129 152.798 28.1231C155.122 28.1231 157.421 29.0844 159.049 30.7324C160.692 32.3703 161.612 35.0356 161.597 37.3499H162.426V37.355Z" fill="#EA002A"/>
</g>
<defs>
<clipPath id="clip0_207_834">
<rect width="183.52" height="50" fill="white"/>
</clipPath>
</defs>
</svg>
