<svg width="46" height="46" viewBox="0 0 46 46" fill="none" xmlns="http://www.w3.org/2000/svg">
<rect x="0.5" y="6.5" width="39" height="39" rx="4.5" fill="white" stroke="#EBEBEB"/>
<path d="M27.08 29.306L25.5203 26.4266V23.4286C25.5203 20.4352 23.0851 18 20.0918 18C17.0985 18 14.6632 20.4352 14.6632 23.4286V26.4266L13.1035 29.306C13.0328 29.4366 12.9972 29.5833 13.0002 29.7317C13.0032 29.8802 13.0447 30.0253 13.1207 30.1529C13.1967 30.2805 13.3045 30.3861 13.4336 30.4595C13.5627 30.5329 13.7087 30.5714 13.8572 30.5714H16.962C16.9533 30.6664 16.949 30.7618 16.9489 30.8571C16.9489 31.6907 17.28 32.4901 17.8694 33.0795C18.4588 33.6689 19.2582 34 20.0917 34C20.9253 34 21.7247 33.6689 22.3141 33.0795C22.9035 32.4901 23.2346 31.6907 23.2346 30.8571C23.2346 30.7607 23.23 30.6656 23.2215 30.5714H26.3263C26.4748 30.5714 26.6207 30.5328 26.7498 30.4594C26.8789 30.3861 26.9867 30.2804 27.0626 30.1529C27.1386 30.0253 27.1802 29.8802 27.1832 29.7317C27.1862 29.5833 27.1506 29.4366 27.0799 29.306H27.08ZM22.0918 30.8571C22.092 31.132 22.0356 31.4039 21.926 31.656C21.8165 31.9081 21.6561 32.1349 21.455 32.3222C21.2539 32.5095 21.0163 32.6534 20.7571 32.7449C20.4979 32.8363 20.2227 32.8733 19.9485 32.8536C19.6744 32.834 19.4073 32.758 19.1638 32.6304C18.9203 32.5029 18.7057 32.3266 18.5335 32.1124C18.3612 31.8983 18.2349 31.6509 18.1625 31.3858C18.09 31.1206 18.073 30.8434 18.1125 30.5714H22.071C22.0847 30.666 22.0917 30.7615 22.0918 30.8571V30.8571ZM14.3368 29.4286L15.8061 26.7163V23.4286C15.8061 22.2919 16.2576 21.2018 17.0613 20.3981C17.865 19.5944 18.9551 19.1429 20.0918 19.1429C21.2284 19.1429 22.3185 19.5944 23.1222 20.3981C23.926 21.2018 24.3775 22.2919 24.3775 23.4286V26.7163L25.8466 29.4286H14.3368Z" fill="#173F6B"/>
<rect x="20" width="26" height="18" rx="9" fill="#EA002A"/>
<path d="M33.238 12.796C32.566 13.72 31.6233 14.182 30.41 14.182C29.1967 14.182 28.2493 13.72 27.568 12.796C26.896 11.872 26.56 10.64 26.56 9.1C26.56 7.56 26.896 6.328 27.568 5.404C28.2493 4.48 29.1967 4.018 30.41 4.018C31.6233 4.018 32.566 4.48 33.238 5.404C33.9193 6.328 34.26 7.56 34.26 9.1C34.26 10.64 33.9193 11.872 33.238 12.796ZM30.41 12.614C31.138 12.614 31.6933 12.3107 32.076 11.704C32.4587 11.0973 32.65 10.2293 32.65 9.1C32.65 7.97067 32.4587 7.10267 32.076 6.496C31.6933 5.88933 31.138 5.586 30.41 5.586C29.6913 5.586 29.136 5.88933 28.744 6.496C28.3613 7.10267 28.17 7.97067 28.17 9.1C28.17 10.2293 28.3613 11.0973 28.744 11.704C29.136 12.3107 29.6913 12.614 30.41 12.614ZM37.3029 4.2H38.7029V14H37.0929V5.922L35.1189 6.482L34.7269 5.11L37.3029 4.2Z" fill="white"/>
</svg>
